<svg width="300" height="38" xmlns="http://www.w3.org/2000/svg"><g fill="none" fill-rule="evenodd"><path d="M159.971 36.554V4.652h-6.057v9.423c-1.692-1.644-3.997-2.552-6.842-2.552-6.94 0-12.212 5.644-12.212 12.712 0 7.092 5.272 12.834 12.212 12.834 2.845 0 5.15-.981 6.842-2.626v2.11h6.057zm-12.237-5.325c-3.727 0-6.744-3.117-6.744-6.994 0-3.804 3.017-6.97 6.744-6.97 2.477 0 4.831 1.228 6.008 3.264.074.148.172.344.172.59v6.232c0 .123-.074.344-.123.418-1.152 2.11-3.506 3.46-6.057 3.46zm-21.678 5.325h6.057v-24.54h-6.057v24.54zm3.04-26.405c1.938 0 3.508-1.595 3.508-3.534a3.513 3.513 0 0 0-3.507-3.533 3.513 3.513 0 0 0-3.507 3.533c0 1.939 1.57 3.534 3.507 3.534zm-18.612 26.896c7.087 0 12.825-5.718 12.825-12.81 0-7.068-5.738-12.712-12.825-12.712-7.063 0-12.801 5.644-12.801 12.712 0 7.092 5.738 12.81 12.8 12.81zm0-6.11c-3.679 0-6.67-2.995-6.67-6.7 0-3.681 2.991-6.675 6.67-6.675a6.67 6.67 0 0 1 6.695 6.675c0 3.705-2.968 6.7-6.695 6.7zm-19.152 5.619V23.45c0-3.878 2.035-5.939 5.91-5.939v-5.988c-7.799 0-11.968 4.148-11.968 11.927v13.104h6.058zm-9.27 0V4.652h-6.057v9.423c-1.692-1.644-3.998-2.625-6.842-2.625-6.94 0-12.213 5.717-12.213 12.785 0 7.092 5.273 12.81 12.213 12.81 2.844 0 5.15-.957 6.842-2.602v2.11h6.057zm-12.237-5.325c-3.728 0-6.744-3.117-6.744-6.994 0-3.804 3.016-6.97 6.744-6.97 2.477 0 4.83 1.228 6.008 3.264.074.148.172.344.172.59v6.208c0 .123-.074.368-.123.442-1.153 2.11-3.507 3.46-6.057 3.46zm-15.4 5.325V23.278c0-6.528-5.077-11.755-11.55-11.755-6.5 0-11.551 5.227-11.551 11.755v13.276h6.057V23.278c0-3.215 2.256-5.669 5.493-5.669 3.213 0 5.493 2.454 5.493 5.669v13.276h6.058zm-26.314 0v-24.54h-6.057v2.061c-1.692-1.644-3.997-2.552-6.842-2.552C8.272 11.523 3 17.167 3 24.235c0 7.092 5.272 12.81 12.212 12.81 2.845 0 5.15-.957 6.842-2.602v2.11h6.057zm-12.236-5.325c-3.728 0-6.744-3.117-6.744-6.994 0-3.804 3.016-6.97 6.744-6.97 2.476 0 4.953 1.154 6.008 3.264.073.148.171.344.171.59v6.183a1.3 1.3 0 0 1-.122.467c-1.153 2.11-3.507 3.46-6.057 3.46z" fill="#78C257"/><path d="M176.276 37c-4.32 0-6.933-.9-9.395-2.1l-.402-.2 1.206-1.7.653.3c2.311 1.05 4.572 1.85 7.888 1.85 3.668 0 7.335-1.75 7.335-5.2 0-3.55-3.617-4.2-8.742-5.75-4.27-1.3-7.586-2.6-7.586-6.65 0-4.15 4.32-6.55 9.244-6.55 2.914 0 5.577.45 7.788 1.3l.653.25-1.105 1.65-.453-.15c-1.959-.65-4.42-1.2-6.782-1.2-3.367 0-7.135 1.45-7.135 4.6 0 2.8 2.11 3.65 6.532 5 5.526 1.7 9.797 2.8 9.797 7.3 0 4.65-4.371 7.25-9.496 7.25zm11.355-23.5v-2h3.517v-6h2.21v6h6.532v2h-6.531v15c0 3.55 2.462 6.25 6.43 6.25h.101v2h-.1c-5.527 0-8.642-3.5-8.642-8.25v-15h-3.517zm26.88 23.5c-6.13 0-11.254-4.9-11.254-11.1V11.5h2.21v14.4c0 5 4.02 9.1 9.044 9.1 5.075 0 9.044-4.1 9.044-9.1V11.5h2.21v14.4c0 6.2-5.074 11.1-11.254 11.1zm28.89 0c-7.185 0-13.164-5.8-13.164-13 0-7.25 5.979-13 13.164-13 3.567 0 6.682 1.45 8.993 3.75V1.5h2.21v35h-2.21v-3.2c-2.311 2.3-5.426 3.7-8.993 3.7zm0-2c3.718 0 7.034-1.85 8.993-4.65V17.7c-1.96-2.8-5.275-4.7-8.993-4.7-6.08 0-10.953 4.95-10.953 11 0 6 4.873 11 10.953 11zm19.243-30.3c-1.055 0-1.86-.8-1.86-1.85S261.59 1 262.645 1c1.055 0 1.859.8 1.859 1.85s-.804 1.85-1.86 1.85zm-1.106 31.8v-25h2.211v25h-2.21zm20.298-1.5c6.13 0 10.953-5 10.953-11 0-6.05-4.823-11-10.953-11-6.079 0-10.953 4.95-10.953 11 0 6 4.874 11 10.953 11zm0 2c-7.184 0-13.163-5.8-13.163-13 0-7.25 5.979-13 13.163-13C289.071 11 295 16.75 295 24c0 7.2-5.929 13-13.164 13z" fill="#757575"/></g></svg>